<svg width="349" height="349" viewBox="0 0 349 349" fill="none" xmlns="http://www.w3.org/2000/svg">
<path d="M174.19 339.75C266.217 339.75 340.82 265.147 340.82 173.12C340.82 81.0928 266.217 6.48999 174.19 6.48999C82.1624 6.48999 7.55957 81.0928 7.55957 173.12C7.55957 265.147 82.1624 339.75 174.19 339.75Z" fill="white"/>
<path d="M329.03 174.4C329.03 259.78 259.57 329.24 174.19 329.24C88.81 329.24 19.35 259.78 19.35 174.4C19.35 129.02 38.98 88.14 70.19 59.79L57.73 44.99C22.31 76.9 0 123.09 0 174.4C0 270.45 78.14 348.58 174.18 348.58C270.23 348.58 348.36 270.44 348.36 174.4C348.36 123.09 326.05 76.9 290.63 45L278.19 59.78C309.4 88.13 329.03 129.02 329.03 174.4Z" fill="#00A4C7"/>
<path d="M296.12 174.4C296.12 241.64 241.42 296.34 174.18 296.34C106.94 296.34 52.2499 241.63 52.2499 174.4C52.2499 139.1 67.3399 107.27 91.3899 84.9899L78.9199 70.1699C50.6599 96.0199 32.8999 133.17 32.8999 174.4C32.8999 252.3 96.2799 315.68 174.18 315.68C252.08 315.68 315.47 252.3 315.47 174.4C315.47 133.17 297.71 96.0199 269.45 70.1699L256.98 84.9899C281.03 107.27 296.12 139.1 296.12 174.4Z" fill="#056A8D"/>
<path d="M263.22 174.4C263.22 223.49 223.28 263.43 174.19 263.43C125.1 263.43 85.1601 223.49 85.1601 174.4C85.1601 149.19 95.7101 126.4 112.61 110.19L100.14 95.37C79.0401 115.16 65.8101 143.26 65.8101 174.4C65.8101 234.16 114.43 282.78 174.19 282.78C233.95 282.78 282.57 234.16 282.57 174.4C282.57 143.26 269.35 115.16 248.24 95.37L235.77 110.19C252.67 126.4 263.22 149.18 263.22 174.4Z" fill="#174889"/>
<path d="M174.19 0.209961C129.45 0.209961 88.61 17.17 57.73 44.99L70.18 59.78L78.92 70.16C104.06 47.16 137.51 33.11 174.19 33.11C210.87 33.11 244.32 47.16 269.46 70.16L278.2 59.78L290.65 44.99C259.76 17.18 218.92 0.209961 174.19 0.209961Z" fill="#82C342"/>
<path d="M174.19 33.11C137.51 33.11 104.06 47.16 78.9199 70.16L91.3899 84.98L100.13 95.36C119.52 77.18 145.57 66.01 174.18 66.01C202.79 66.01 228.84 77.18 248.23 95.36L256.97 84.98L269.44 70.16C244.31 47.17 210.86 33.11 174.19 33.11Z" fill="#2D9646"/>
<path d="M227.01 120.58L235.76 110.18L248.23 95.36C228.84 77.18 202.79 66.01 174.18 66.01C145.56 66.01 119.52 77.18 100.13 95.36L112.6 110.18L121.35 120.58C107.25 134.14 98.7002 153.34 98.7002 174.4C98.7002 216.02 132.56 249.88 174.18 249.88C215.8 249.88 249.66 216.02 249.66 174.4C249.66 153.34 240.87 134.39 227.01 120.58ZM174.19 230.53C143.19 230.53 118.06 205.4 118.06 174.4C118.06 168.82 118.9 163.24 120.55 157.91C123.3 148.99 128.57 140.94 135 134.25C144.89 123.97 174.19 100.56 174.19 100.56C174.19 100.56 203.49 123.97 213.38 134.25C219.82 140.94 225.09 148.99 227.83 157.91C229.48 163.24 230.32 168.82 230.32 174.4C230.32 205.4 205.19 230.53 174.19 230.53Z" fill="#04723B"/>
</svg>
