<svg width="904" height="350" viewBox="0 0 904 350" fill="none" xmlns="http://www.w3.org/2000/svg">
<path d="M331.02 174.82C331.02 260.2 261.56 329.66 176.18 329.66C90.8 329.66 21.34 260.2 21.34 174.82C21.34 129.44 40.97 88.5599 72.18 60.2099L59.73 45.4199C24.31 77.3299 2 123.51 2 174.82C2 270.87 80.14 349 176.18 349C272.23 349 350.36 270.86 350.36 174.82C350.36 123.51 328.05 77.3199 292.63 45.4199L280.18 60.2099C311.4 88.5599 331.02 129.44 331.02 174.82Z" fill="#00A4C7"/>
<path d="M298.12 174.82C298.12 242.06 243.42 296.76 176.18 296.76C108.94 296.76 54.2499 242.06 54.2499 174.82C54.2499 139.52 69.3399 107.69 93.3899 85.4099L80.9199 70.5898C52.6599 96.4398 34.8999 133.59 34.8999 174.82C34.8999 252.72 98.2799 316.1 176.18 316.1C254.08 316.1 317.46 252.72 317.46 174.82C317.46 133.59 299.7 96.4398 271.44 70.5898L258.98 85.4099C283.03 107.7 298.12 139.52 298.12 174.82Z" fill="#0B6B8E"/>
<path d="M265.22 174.82C265.22 223.91 225.28 263.85 176.19 263.85C127.1 263.85 87.1601 223.91 87.1601 174.82C87.1601 149.61 97.7101 126.82 114.61 110.61L102.14 95.7898C81.0401 115.58 67.8101 143.68 67.8101 174.82C67.8101 234.58 116.43 283.2 176.19 283.2C235.95 283.2 284.57 234.58 284.57 174.82C284.57 143.68 271.35 115.58 250.24 95.7898L237.77 110.61C254.66 126.83 265.22 149.61 265.22 174.82Z" fill="#154989"/>
<path d="M176.18 0.639893C131.44 0.639893 90.6002 17.5999 59.7202 45.4199L72.1802 60.2099L80.9202 70.5899C106.06 47.5899 139.51 33.5399 176.19 33.5399C212.87 33.5399 246.32 47.5899 271.46 70.5899L280.2 60.2099L292.65 45.4199C261.76 17.5999 220.92 0.639893 176.18 0.639893Z" fill="#81C343"/>
<path d="M176.18 33.5398C139.5 33.5398 106.05 47.5898 80.9102 70.5898L93.3801 85.4098L102.12 95.7898C121.51 77.6098 147.56 66.4398 176.17 66.4398C204.78 66.4398 230.83 77.6098 250.22 95.7898L258.96 85.4098L271.43 70.5898C246.31 47.5898 212.86 33.5398 176.18 33.5398Z" fill="#2E9646"/>
<path d="M229.01 121.01L237.76 110.61L250.23 95.7899C230.84 77.6099 204.79 66.4399 176.18 66.4399C147.56 66.4399 121.52 77.6099 102.13 95.7899L114.6 110.61L123.35 121.01C109.25 134.57 100.7 153.77 100.7 174.83C100.7 216.45 134.56 250.31 176.18 250.31C217.8 250.31 251.66 216.45 251.66 174.83C251.66 153.76 242.87 134.82 229.01 121.01ZM176.18 230.96C145.18 230.96 120.05 205.83 120.05 174.83C120.05 169.25 120.89 163.67 122.54 158.34C125.29 149.42 130.56 141.37 136.99 134.68C146.88 124.4 176.18 100.99 176.18 100.99C176.18 100.99 205.48 124.4 215.37 134.68C221.81 141.37 227.08 149.42 229.82 158.34C231.47 163.67 232.31 169.25 232.31 174.83C232.31 205.82 207.18 230.96 176.18 230.96Z" fill="#0D723C"/>
<path d="M488.89 232.99H459.25V215.7L450.7 229.19C443.86 233.75 436.64 235.65 427.14 235.65C406.24 235.65 393.7 223.87 391.42 210C390.66 204.87 390.47 199.36 390.47 191.19V131.72H420.11V184.73C420.11 187.96 420.3 193.47 420.87 198.6C422.2 208.86 427.52 214.94 439.11 214.94C451.27 214.94 459.25 204.49 459.25 185.87V131.72H488.89V232.99Z" fill="#154989"/>
<path d="M633.29 232.99H603.65V180.36H546.27V232.99H516.44V101.89H546.27V156.99H603.65V101.89H633.29V232.99Z" fill="#154989"/>
<path d="M770.66 177.7C770.66 183.78 770.66 187.58 770.09 194.42C768.57 216.46 753.18 235.65 714.8 235.65C676.42 235.65 661.03 216.46 659.32 194.42C658.94 187.58 658.94 183.78 658.94 177.7V101.89H688.58V182.07C688.58 185.68 688.58 188.15 688.77 190.81C689.91 205.06 698.46 213.61 714.8 213.61C731.14 213.61 739.69 205.06 740.64 190.81C741.02 188.15 741.02 185.68 741.02 182.07V101.89H770.66V177.7Z" fill="#154989"/>
<path d="M900.62 193.66C900.62 217.98 881.62 229.95 863.95 232.23C857.49 232.99 853.12 232.99 845.33 232.99H795.55V101.89H845.52C852.36 101.89 855.78 101.89 862.43 102.65C883.71 105.31 895.87 118.23 895.87 135.71C895.87 148.44 889.03 157.56 875.92 162.12C892.64 166.49 900.62 177.13 900.62 193.66ZM825.38 154.71H843.24C846.28 154.71 849.32 154.52 851.98 154.14C860.15 152.81 864.71 148.44 864.71 139.7C864.71 130.96 859.58 126.78 851.79 125.64C849.13 125.26 845.71 125.07 842.67 125.07H825.38V154.71ZM869.46 193.28C869.46 182.64 862.62 177.7 854.26 176.94C851.22 176.56 848.18 176.56 845.14 176.56H825.38V209.62H846.28C849.32 209.62 852.36 209.62 854.83 209.43C862.62 208.86 869.46 203.16 869.46 193.28Z" fill="#154989"/>
</svg>
