<svg width="135" height="52" viewBox="0 0 135 52" fill="none" xmlns="http://www.w3.org/2000/svg">
<g clip-path="url(#clip0_3_83930)">
<ellipse cx="25.428" cy="25.5438" rx="24.9658" ry="24.6316" fill="white"/>
<path d="M49.4333 25.9733C49.4333 38.6583 39.0604 48.9781 26.3101 48.9781C13.5598 48.9781 3.18687 38.6583 3.18687 25.9733C3.18687 19.2311 6.11834 13.1575 10.7791 8.94554L8.91989 6.74817C3.6304 11.4891 0.298706 18.3501 0.298706 25.9733C0.298706 40.2436 11.9678 51.8515 26.3101 51.8515C40.6539 51.8515 52.3215 40.2421 52.3215 25.9733C52.3215 18.3501 48.9898 11.4876 43.7003 6.74817L41.8411 8.94554C46.5034 13.1575 49.4333 19.2311 49.4333 25.9733Z" fill="#00A4C7"/>
<path d="M44.5202 25.9733C44.5202 35.9632 36.3515 44.0901 26.3101 44.0901C16.2688 44.0901 8.10157 35.9632 8.10157 25.9733C8.10157 20.7287 10.3551 15.9997 13.9466 12.6895L12.0844 10.4877C7.86413 14.3282 5.21191 19.8477 5.21191 25.9733C5.21191 37.547 14.6768 46.9634 26.3101 46.9634C37.9434 46.9634 47.4084 37.547 47.4084 25.9733C47.4084 19.8477 44.7562 14.3282 40.5359 10.4877L38.6752 12.6895C42.2667 16.0012 44.5202 20.7287 44.5202 25.9733Z" fill="#0B6B8E"/>
<path d="M39.6071 25.9733C39.6071 33.2667 33.6426 39.2006 26.3117 39.2006C18.9807 39.2006 13.0162 33.2667 13.0162 25.9733C13.0162 22.2278 14.5917 18.8419 17.1155 16.4335L15.2533 14.2317C12.1023 17.1719 10.1266 21.3468 10.1266 25.9733C10.1266 34.8519 17.3873 42.0755 26.3117 42.0755C35.236 42.0755 42.4967 34.8519 42.4967 25.9733C42.4967 21.3468 40.5225 17.1719 37.37 14.2317L35.5078 16.4335C38.0301 18.8433 39.6071 22.2278 39.6071 25.9733Z" fill="#154989"/>
<path d="M26.3102 0.0950928C19.6289 0.0950928 13.53 2.61486 8.91846 6.74812L10.7792 8.94549L12.0844 10.4877C15.8387 7.07052 20.834 4.98309 26.3117 4.98309C31.7893 4.98309 36.7846 7.07052 40.5389 10.4877L41.8441 8.94549L43.7034 6.74812C39.0904 2.61486 32.9915 0.0950928 26.3102 0.0950928Z" fill="#81C343"/>
<path d="M26.3102 4.98303C20.8325 4.98303 15.8372 7.07046 12.0829 10.4876L13.9451 12.6894L15.2503 14.2316C18.1459 11.5306 22.0361 9.87103 26.3087 9.87103C30.5812 9.87103 34.4714 11.5306 37.367 14.2316L38.6722 12.6894L40.5344 10.4876C36.7831 7.07046 31.7878 4.98303 26.3102 4.98303Z" fill="#2E9646"/>
<path d="M34.1995 17.9786L35.5062 16.4335L37.3685 14.2317C34.4728 11.5306 30.5826 9.87109 26.3101 9.87109C22.0361 9.87109 18.1474 11.5306 15.2518 14.2317L17.114 16.4335L18.4207 17.9786C16.315 19.9933 15.0382 22.8458 15.0382 25.9748C15.0382 32.1583 20.0947 37.1889 26.3101 37.1889C32.5255 37.1889 37.582 32.1583 37.582 25.9748C37.582 22.8444 36.2693 20.0304 34.1995 17.9786ZM26.3101 34.3141C21.6807 34.3141 17.9279 30.5805 17.9279 25.9748C17.9279 25.1457 18.0533 24.3167 18.2997 23.5248C18.7104 22.1996 19.4974 21.0035 20.4576 20.0096C21.9346 18.4823 26.3101 15.0042 26.3101 15.0042C26.3101 15.0042 30.6857 18.4823 32.1626 20.0096C33.1243 21.0035 33.9113 22.1996 34.3205 23.5248C34.5669 24.3167 34.6924 25.1457 34.6924 25.9748C34.6924 30.579 30.9395 34.3141 26.3101 34.3141Z" fill="#0D723C"/>
<path d="M73.0091 34.6157H68.5828V32.0469L67.3059 34.0511C66.2845 34.7286 65.2063 35.0109 63.7876 35.0109C60.6664 35.0109 58.7938 33.2607 58.4533 31.2C58.3398 30.4378 58.3114 29.6192 58.3114 28.4054V19.5698H62.7377V27.4456C62.7377 27.9255 62.7661 28.7441 62.8512 29.5063C63.0498 31.0306 63.8443 31.9339 65.5751 31.9339C67.391 31.9339 68.5828 30.3814 68.5828 27.615V19.5698H73.0091V34.6157Z" fill="white"/>
<path d="M94.5732 34.6157H90.1469V26.7963H81.578V34.6157H77.1233V15.1379H81.578V23.3242H90.1469V15.1379H94.5732V34.6157Z" fill="white"/>
<path d="M115.088 26.4011C115.088 27.3045 115.088 27.869 115.002 28.8853C114.775 32.1598 112.477 35.0109 106.746 35.0109C101.014 35.0109 98.7158 32.1598 98.4604 28.8853C98.4037 27.869 98.4037 27.3045 98.4037 26.4011V15.1379H102.83V27.0504C102.83 27.5867 102.83 27.9537 102.858 28.3489C103.029 30.4661 104.305 31.7363 106.746 31.7363C109.186 31.7363 110.463 30.4661 110.604 28.3489C110.661 27.9537 110.661 27.5867 110.661 27.0504V15.1379H115.088V26.4011Z" fill="white"/>
<path d="M134.495 28.7723C134.495 32.3856 131.658 34.164 129.019 34.5027C128.054 34.6157 127.402 34.6157 126.239 34.6157H118.805V15.1379H126.267C127.288 15.1379 127.799 15.1379 128.792 15.2509C131.97 15.6461 133.786 17.5656 133.786 20.1626C133.786 22.0539 132.765 23.4089 130.807 24.0864C133.304 24.7357 134.495 26.3165 134.495 28.7723ZM123.259 22.9855H125.926C126.38 22.9855 126.834 22.9573 127.232 22.9008C128.452 22.7032 129.133 22.0539 129.133 20.7554C129.133 19.4569 128.367 18.8359 127.203 18.6665C126.806 18.6101 126.295 18.5818 125.841 18.5818H123.259V22.9855ZM129.842 28.7159C129.842 27.1351 128.821 26.4011 127.572 26.2882C127.118 26.2318 126.664 26.2318 126.21 26.2318H123.259V31.1435H126.38C126.834 31.1435 127.288 31.1435 127.657 31.1153C128.821 31.0306 129.842 30.1838 129.842 28.7159Z" fill="white"/>
</g>
<defs>
<clipPath id="clip0_3_83930">
<rect width="135" height="52" fill="white"/>
</clipPath>
</defs>
</svg>
