<svg width="14" height="17" viewBox="0 0 14 17" fill="none" xmlns="http://www.w3.org/2000/svg">
<path fill-rule="evenodd" clip-rule="evenodd" d="M3.62637 4H6.43574L6.4375 4H8.97239C10.3687 4.00201 11.4999 5.13452 11.4999 6.53125V13.5625C12.7426 13.5625 13.7499 12.5551 13.7499 11.3125V4.08116C13.7499 2.95211 12.9064 1.97245 11.7519 1.87663C11.584 1.8627 11.4159 1.8499 11.2474 1.83825C10.8725 1.11736 10.1187 0.625 9.25 0.625H8.125C7.25626 0.625 6.50251 1.11735 6.12757 1.83824C5.95905 1.8499 5.79084 1.8627 5.62295 1.87663C4.49624 1.97015 3.66566 2.90552 3.62637 4ZM8.125 1.75C7.50368 1.75 7 2.25368 7 2.875H10.375C10.375 2.25368 9.87132 1.75 9.25 1.75H8.125Z" fill="#174889"/>
<path fill-rule="evenodd" clip-rule="evenodd" d="M0.25 6.53125C0.25 5.7546 0.8796 5.125 1.65625 5.125H8.96875C9.7454 5.125 10.375 5.7546 10.375 6.53125V14.9688C10.375 15.7454 9.7454 16.375 8.96875 16.375H1.65625C0.8796 16.375 0.25 15.7454 0.25 14.9688V6.53125ZM2.5 8.5C2.5 8.18934 2.75184 7.9375 3.0625 7.9375H3.06813C3.37879 7.9375 3.63063 8.18934 3.63063 8.5V8.50563C3.63063 8.81629 3.37879 9.06812 3.06813 9.06812H3.0625C2.75184 9.06812 2.5 8.81629 2.5 8.50563V8.5ZM4.1875 8.5C4.1875 8.18934 4.43934 7.9375 4.75 7.9375H7.5625C7.87316 7.9375 8.125 8.18934 8.125 8.5C8.125 8.81066 7.87316 9.0625 7.5625 9.0625H4.75C4.43934 9.0625 4.1875 8.81066 4.1875 8.5ZM2.5 10.75C2.5 10.4393 2.75184 10.1875 3.0625 10.1875H3.06813C3.37879 10.1875 3.63063 10.4393 3.63063 10.75V10.7556C3.63063 11.0663 3.37879 11.3181 3.06813 11.3181H3.0625C2.75184 11.3181 2.5 11.0663 2.5 10.7556V10.75ZM4.1875 10.75C4.1875 10.4393 4.43934 10.1875 4.75 10.1875H7.5625C7.87316 10.1875 8.125 10.4393 8.125 10.75C8.125 11.0607 7.87316 11.3125 7.5625 11.3125H4.75C4.43934 11.3125 4.1875 11.0607 4.1875 10.75ZM2.5 13C2.5 12.6893 2.75184 12.4375 3.0625 12.4375H3.06813C3.37879 12.4375 3.63063 12.6893 3.63063 13V13.0056C3.63063 13.3163 3.37879 13.5681 3.06813 13.5681H3.0625C2.75184 13.5681 2.5 13.3163 2.5 13.0056V13ZM4.1875 13C4.1875 12.6893 4.43934 12.4375 4.75 12.4375H7.5625C7.87316 12.4375 8.125 12.6893 8.125 13C8.125 13.3107 7.87316 13.5625 7.5625 13.5625H4.75C4.43934 13.5625 4.1875 13.3107 4.1875 13Z" fill="#174889"/>
</svg>
