<svg width="15" height="16" viewBox="0 0 15 16" fill="none" xmlns="http://www.w3.org/2000/svg">
<path d="M11.2279 7.99307L6.88143 12.3395C6.62799 12.593 6.44817 12.9105 6.36123 13.2582L6.02427 14.6063C5.87767 15.1925 6.40875 15.7235 6.99501 15.577L8.34312 15.24C8.69079 15.153 9.00831 14.9733 9.26175 14.7198L13.6082 10.3734C14.2655 9.71603 14.2655 8.65034 13.6082 7.99307C12.9509 7.33572 11.8852 7.33572 11.2279 7.99307ZM3.29961 0.750049C3.29961 0.501523 3.09814 0.300049 2.84961 0.300049C2.60108 0.300049 2.39961 0.501523 2.39961 0.750049V1.20005H1.94961C1.20402 1.20005 0.599609 1.80446 0.599609 2.55005V13.35C0.599609 14.0956 1.20402 14.7 1.94961 14.7H5.10218C5.10874 14.5974 5.12476 14.4931 5.15105 14.3879L5.48808 13.0399C5.61456 12.5339 5.87616 12.0719 6.24495 11.7031L10.5914 7.35663C10.8311 7.11701 11.106 6.9343 11.3996 6.80852V2.55005C11.3996 1.80446 10.7952 1.20005 10.0496 1.20005H9.59961V0.750049C9.59961 0.501523 9.3981 0.300049 9.14961 0.300049C8.90112 0.300049 8.69961 0.501523 8.69961 0.750049V1.20005H6.44961V0.750049C6.44961 0.501523 6.2481 0.300049 5.99961 0.300049C5.75108 0.300049 5.54961 0.501523 5.54961 0.750049V1.20005H3.29961V0.750049ZM3.74961 4.80005H8.24961C8.4981 4.80005 8.69961 5.00152 8.69961 5.25005C8.69961 5.49857 8.4981 5.70005 8.24961 5.70005H3.74961C3.50108 5.70005 3.29961 5.49857 3.29961 5.25005C3.29961 5.00152 3.50108 4.80005 3.74961 4.80005ZM8.69961 7.95005C8.69961 8.19854 8.4981 8.40005 8.24961 8.40005H3.74961C3.50108 8.40005 3.29961 8.19854 3.29961 7.95005C3.29961 7.70156 3.50108 7.50005 3.74961 7.50005H8.24961C8.4981 7.50005 8.69961 7.70156 8.69961 7.95005ZM3.74961 10.2H5.54961C5.79814 10.2 5.99961 10.4016 5.99961 10.65C5.99961 10.8985 5.79814 11.1 5.54961 11.1H3.74961C3.50108 11.1 3.29961 10.8985 3.29961 10.65C3.29961 10.4016 3.50108 10.2 3.74961 10.2Z" fill="#174889"/>
</svg>
