<svg width="24" height="24" viewBox="0 0 24 24" fill="none" xmlns="http://www.w3.org/2000/svg">
<path d="M12.0001 2C7.58908 2 4.00008 5.589 4.00008 9.995C3.97108 16.44 11.6961 21.784 12.0001 22C12.0001 22 20.0291 16.44 20.0001 10C20.0001 5.589 16.4111 2 12.0001 2ZM12.0001 14C9.79008 14 8.00008 12.21 8.00008 10C8.00008 7.79 9.79008 6 12.0001 6C14.2101 6 16.0001 7.79 16.0001 10C16.0001 12.21 14.2101 14 12.0001 14Z" fill="#E6533C"/>
<path d="M11.9744 13.844C14.3519 13.844 16.2793 11.9167 16.2793 9.53919C16.2793 7.16171 14.3519 5.23438 11.9744 5.23438C9.59682 5.23438 7.66943 7.16171 7.66943 9.53919C7.66943 11.9167 9.59682 13.844 11.9744 13.844Z" fill="white"/>
<path d="M15.9747 9.57275C15.9747 11.7785 14.1802 13.573 11.9744 13.573C9.76856 13.573 7.97403 11.7785 7.97403 9.57275C7.97403 8.40037 8.48118 7.34426 9.2875 6.61184L8.9656 6.22949C8.05051 7.05387 7.47412 8.24717 7.47412 9.57275C7.47412 12.0542 9.49289 14.0726 11.9741 14.0726C14.4556 14.0726 16.4741 12.0539 16.4741 9.57275C16.4741 8.24717 15.8977 7.05387 14.9826 6.22975L14.6613 6.61159C15.4676 7.344 15.9747 8.40037 15.9747 9.57275Z" fill="#00A4C7"/>
<path d="M15.1246 9.57262C15.1246 11.3097 13.7114 12.7229 11.9742 12.7229C10.2371 12.7229 8.82413 11.3095 8.82413 9.57262C8.82413 8.66066 9.21399 7.83835 9.83533 7.26275L9.51316 6.87988C8.78305 7.54771 8.32422 8.50746 8.32422 9.57262C8.32422 11.5851 9.96166 13.2225 11.9742 13.2225C13.9868 13.2225 15.6245 11.5851 15.6245 9.57262C15.6245 8.50746 15.1657 7.54771 14.4356 6.87988L14.1134 7.26275C14.7347 7.83835 15.1246 8.66066 15.1246 9.57262Z" fill="#056A8D"/>
<path d="M14.2745 9.57198C14.2745 10.8402 13.2426 11.872 11.9743 11.872C10.7061 11.872 9.67423 10.8402 9.67423 9.57198C9.67423 8.92069 9.94679 8.33192 10.3834 7.91314L10.0612 7.53027C9.51612 8.04154 9.17432 8.76749 9.17432 9.57198C9.17432 11.1159 10.4304 12.3719 11.9743 12.3719C13.5183 12.3719 14.7744 11.1159 14.7744 9.57198C14.7744 8.76749 14.4328 8.04154 13.8875 7.53027L13.5653 7.91314C14.0019 8.33192 14.2745 8.92043 14.2745 9.57198Z" fill="#174889"/>
<path d="M11.9746 5.07227C10.8187 5.07227 9.76362 5.51042 8.96582 6.22914L9.28747 6.61123L9.51327 6.8794C10.1628 6.2852 11.027 5.92222 11.9746 5.92222C12.9222 5.92222 13.7864 6.2852 14.4359 6.8794L14.6617 6.61123L14.9834 6.22914C14.1853 5.51068 13.1302 5.07227 11.9746 5.07227Z" fill="#82C342"/>
<path d="M11.9745 5.92188C11.0269 5.92188 10.1627 6.28485 9.51318 6.87905L9.83535 7.26192L10.0612 7.53008C10.5621 7.06041 11.2351 6.77183 11.9743 6.77183C12.7134 6.77183 13.3864 7.06041 13.8874 7.53008L14.1132 7.26192L14.4353 6.87905C13.7861 6.28511 12.9219 5.92188 11.9745 5.92188Z" fill="#2D9646"/>
<path d="M13.3389 8.18225L13.5649 7.91357L13.8871 7.53071C13.3861 7.06103 12.7131 6.77246 11.974 6.77246C11.2346 6.77246 10.5618 7.06103 10.0609 7.53071L10.383 7.91357L10.6091 8.18225C10.2448 8.53257 10.0239 9.0286 10.0239 9.57267C10.0239 10.6479 10.8987 11.5227 11.974 11.5227C13.0492 11.5227 13.924 10.6479 13.924 9.57267C13.924 9.0286 13.6969 8.53903 13.3389 8.18225ZM11.9742 11.0228C11.1733 11.0228 10.5241 10.3735 10.5241 9.57267C10.5241 9.42851 10.5458 9.28436 10.5884 9.14666C10.6595 8.91622 10.7956 8.70825 10.9617 8.53541C11.2173 8.26983 11.9742 7.66505 11.9742 7.66505C11.9742 7.66505 12.7312 8.26983 12.9867 8.53541C13.1531 8.70825 13.2893 8.91622 13.36 9.14666C13.4027 9.28436 13.4244 9.42851 13.4244 9.57267C13.4244 10.3735 12.7751 11.0228 11.9742 11.0228Z" fill="#04723B"/>
</svg>
